<?xml version="1.0" encoding="iso-8859-1"?>
<!-- Generator: Adobe Illustrator 19.0.0, SVG Export Plug-In . SVG Version: 6.00 Build 0)  -->
<svg version="1.1" id="Capa_1" xmlns="http://www.w3.org/2000/svg" xmlns:xlink="http://www.w3.org/1999/xlink" x="0px" y="0px"
	 viewBox="0 0 490 490" style="enable-background:new 0 0 490 490;" xml:space="preserve">
<g>
	<path d="M487.483,357.878c2.708-3.074,4.246-16.302-7.831-17.309H74.721C33.521,340.569,0,374.087,0,415.291
		C0,456.484,33.521,490,74.721,490h404.931c14.281-1.61,10.498-14.365,7.729-17.42C452.525,434.055,452.565,397.616,487.483,357.878
		z M458.156,469.148H74.721c-29.703,0-53.867-24.16-53.867-53.857c0-29.699,24.164-53.87,53.867-53.87h383.72
		C434.298,397.606,434.196,433.708,458.156,469.148z"/>
	<path d="M10.348,319.714h404.93c41.2,0,74.722-33.518,74.722-74.711c0-41.202-33.521-74.721-74.722-74.721H188.749v-20.851h290.903
		c14.281-1.61,10.498-14.365,7.729-17.42c-34.856-38.526-34.815-74.965,0.102-114.702c2.708-3.074,4.246-16.304-7.831-17.31H74.721
		C33.521,0,0,33.519,0,74.721c0,41.194,33.521,74.711,74.721,74.711h13.32v20.851H10.348c-12.077,1.006-10.539,14.234-7.831,17.309
		c34.918,39.738,34.958,76.177,0.102,114.703C-0.15,305.349-3.933,318.104,10.348,319.714z M74.721,128.58
		c-29.703,0-53.867-24.16-53.867-53.859c0-29.698,24.164-53.868,53.867-53.868h383.72c-24.143,36.184-24.245,72.286-0.285,107.728
		H188.749V74.716c0-5.762-4.664-10.426-10.427-10.426H98.468c-5.764,0-10.427,4.664-10.427,10.426v53.864H74.721z M167.895,85.142
		v130.28L144.83,197.35c-1.894-1.477-4.165-2.219-6.435-2.219c-2.271,0-4.542,0.742-6.436,2.219l-23.064,18.072V85.142H167.895z
		 M88.041,191.134v45.699c-0.604,9.074,6.298,17.959,16.862,8.206l33.492-26.237l33.491,26.237
		c10.972,8.891,17.702,0.523,16.863-8.206v-45.699h226.529c29.703,0,53.867,24.171,53.867,53.869
		c0,29.698-24.164,53.859-53.867,53.859H31.844c23.961-35.441,23.858-71.544-0.285-107.729H88.041z"/>
</g>
<g>
</g>
<g>
</g>
<g>
</g>
<g>
</g>
<g>
</g>
<g>
</g>
<g>
</g>
<g>
</g>
<g>
</g>
<g>
</g>
<g>
</g>
<g>
</g>
<g>
</g>
<g>
</g>
<g>
</g>
</svg>
