<svg xmlns="http://www.w3.org/2000/svg" xmlns:xlink="http://www.w3.org/1999/xlink" width="32" height="32" viewBox="0 0 32 32">
  <defs>
    <clipPath id="clip-Youtube">
      <rect width="32" height="32"/>
    </clipPath>
  </defs>
  <g id="Youtube" clip-path="url(#clip-Youtube)">
    <g id="Stroke" fill="none" stroke="#fff" stroke-width="1">
      <circle cx="16" cy="16" r="16" stroke="none"/>
      <circle cx="16" cy="16" r="15.5" fill="none"/>
    </g>
    <g id="youtube-2" data-name="youtube" transform="translate(8 10)">
      <path id="Caminho_10" data-name="Caminho 10" d="M195.415,108.527,191.9,106.6a.646.646,0,0,0-.955.566v3.813a.644.644,0,0,0,.951.569l3.515-1.89a.646.646,0,0,0,0-1.135Zm-3.538,1.977v-2.85l2.627,1.437Zm0,0" transform="translate(-185.012 -103.213)" fill="#fff"/>
      <path id="Caminho_11" data-name="Caminho 11" d="M15.792,2.844V2.837A3.638,3.638,0,0,0,15.09.99a2.589,2.589,0,0,0-1.715-.8L13.3.177l-.028,0C11.165.021,7.989,0,7.957,0H7.952C7.92,0,4.744.021,2.621.174l-.028,0L2.519.186a2.524,2.524,0,0,0-1.7.829,3.813,3.813,0,0,0-.7,1.813l0,.016C.112,2.9,0,4.166,0,5.439V6.63C0,7.9.112,9.172.117,9.225v.008a3.6,3.6,0,0,0,.7,1.824,2.642,2.642,0,0,0,1.772.793c.065.007.12.014.158.02l.037.005c1.214.116,5.022.172,5.183.175h.01c.032,0,3.208-.021,5.311-.174l.028,0,.089-.01a2.465,2.465,0,0,0,1.69-.808,3.812,3.812,0,0,0,.7-1.813l0-.016c0-.053.117-1.322.117-2.6V5.439C15.909,4.166,15.8,2.9,15.792,2.844ZM14.977,6.63c0,1.179-.1,2.393-.113,2.5a2.96,2.96,0,0,1-.457,1.291,1.533,1.533,0,0,1-1.1.511l-.1.011c-2.034.147-5.091.17-5.231.171-.158,0-3.91-.06-5.087-.169-.06-.01-.126-.017-.194-.025a1.743,1.743,0,0,1-1.192-.5l-.009-.009a2.685,2.685,0,0,1-.448-1.279C1.038,9.053.932,7.825.932,6.63V5.439c0-1.177.1-2.39.113-2.5A2.9,2.9,0,0,1,1.5,1.644a1.609,1.609,0,0,1,1.124-.532L2.7,1.1C4.766.955,7.844.933,7.954.932s3.188.023,5.233.171l.082.01a1.669,1.669,0,0,1,1.142.517l0,0a2.729,2.729,0,0,1,.448,1.3c.007.08.113,1.31.113,2.508Zm0,0" fill="#fff"/>
    </g>
  </g>
</svg>
