<?xml version="1.0" encoding="UTF-8"?>
<svg width="34px" height="34px" viewBox="0 0 34 34" version="1.1" xmlns="http://www.w3.org/2000/svg" xmlns:xlink="http://www.w3.org/1999/xlink">
    <!-- Generator: sketchtool 56.2 (101010) - https://sketch.com -->
    <title>FD0114BC-2226-4C50-9115-6AEEBDBA9A07</title>
    <desc>Created with sketchtool.</desc>
    <g id="XL" stroke="none" stroke-width="1" fill="none" fill-rule="evenodd">
        <g id="Home-Safra-XL" transform="translate(-1466.000000, -7182.000000)">
            <g id="Footer" transform="translate(-1.000000, 6921.000000)">
                <g id="Social" transform="translate(1419.000000, 262.000000)">
                    <g id="Facebook" transform="translate(49.000000, 0.000000)">
                        <circle id="Stroke" stroke="#FFFFFF" cx="16" cy="16" r="16"></circle>
                        <path d="M18.6721311,12.1223404 C18.3442623,12.0265957 17.9672131,11.962766 17.6229508,11.962766 C17.1967213,11.962766 16.2786885,12.2340426 16.2786885,12.7606383 L16.2786885,14.0212766 L18.4590164,14.0212766 L18.4590164,16.143617 L16.2786885,16.143617 L16.2786885,22 L14.0819672,22 L14.0819672,16.143617 L13,16.143617 L13,14.0212766 L14.0819672,14.0212766 L14.0819672,12.9521277 C14.0819672,11.3404255 14.8360656,10 16.6557377,10 C17.2786885,10 18.3934426,10.0319149 19,10.2393617 L18.6721311,12.1223404 Z" fill="#FFFFFF"></path>
                    </g>
                </g>
            </g>
        </g>
    </g>
</svg>