<?xml version="1.0" encoding="UTF-8"?>
<svg width="34px" height="34px" viewBox="0 0 34 34" version="1.1" xmlns="http://www.w3.org/2000/svg" xmlns:xlink="http://www.w3.org/1999/xlink">
    <!-- Generator: sketchtool 56.2 (101010) - https://sketch.com -->
    <title>04FA15D5-F898-4DCE-B7A4-3CCA63E6B6A5</title>
    <desc>Created with sketchtool.</desc>
    <defs>
        <path d="M21,21 L19.1538462,21 L19.1538462,17.4342795 C19.1538462,16.4561135 18.7629231,15.9104803 18.0618462,15.9104803 C17.2989231,15.9104803 16.8461538,16.4790393 16.8461538,17.4342795 L16.8461538,21 L15,21 L15,14.3770015 L16.8461538,14.3770015 L16.8461538,15.1218341 C16.8461538,15.1218341 17.4253846,14 18.7306154,14 C20.0363077,14 21,14.8793304 21,16.6991266 L21,21 L21,21 Z M12.0002047,13 C11.4476755,13 11,12.5521236 11,11.9997968 C11,11.4478764 11.4476755,11 12.0002047,11 C12.5523242,11 13,11.4478764 13,11.9997968 C13.0004093,12.5521236 12.5523242,13 12.0002047,13 L12.0002047,13 Z M11,21 L13,21 L13,15 L11,15 L11,21 Z" id="path-1"></path>
    </defs>
    <g id="XL" stroke="none" stroke-width="1" fill="none" fill-rule="evenodd">
        <g id="Home-Safra-XL" transform="translate(-1417.000000, -7182.000000)">
            <g id="Footer" transform="translate(-1.000000, 6921.000000)">
                <g id="Social" transform="translate(1419.000000, 262.000000)">
                    <g id="linkedin">
                        <circle id="Stroke" stroke="#FFFFFF" cx="16" cy="16" r="16"></circle>
                        <mask id="mask-2" fill="white">
                            <use xlink:href="#path-1"></use>
                        </mask>
                        <use id="LinkedIn" fill="#FFFFFF" xlink:href="#path-1"></use>
                    </g>
                </g>
            </g>
        </g>
    </g>
</svg>