<?xml version="1.0" encoding="utf-8"?>
<!-- Svg Vector Icons : http://www.onlinewebfonts.com/icon -->
<!DOCTYPE svg PUBLIC "-//W3C//DTD SVG 1.1//EN" "http://www.w3.org/Graphics/SVG/1.1/DTD/svg11.dtd">
<svg version="1.1" xmlns="http://www.w3.org/2000/svg" xmlns:xlink="http://www.w3.org/1999/xlink" x="0px" y="0px" viewBox="0 0 1000 1000" enable-background="new 0 0 1000 1000" xml:space="preserve" width="40" height="30">
<metadata> Svg Vector Icons : http://www.onlinewebfonts.com/icon </metadata>
<g><g transform="translate(0.000000,511.000000) scale(0.100000,-0.100000)"><path d="M4723.9,4998.3c-722.1-61.6-1448.4-397.1-1992.1-919.6c-535.2-514-851.6-1074.6-1006.7-1779.7c-36.1-167.8-44.6-297.3-53.1-838.9l-10.6-643.5h-348.3H964.9v-2803.3V-4790H5000h4035.1v2803.3V816.7h-348.3h-348.3l-10.6,622.3c-10.6,690.2-29.7,849.5-152.9,1221.2c-189,562.8-460.9,989.7-906.8,1418.7C6582.2,4737.1,5643.5,5079.1,4723.9,4998.3z M5490.6,4371.8c584-99.8,1040.6-341.9,1463.3-770.9c269.7-274,416.2-488.5,554.3-809.2c180.5-418.4,231.5-747.6,231.5-1486.6V816.7h-507.6h-507.6l-8.5,601c-8.5,552.2-12.7,609.5-57.3,747.6c-176.3,535.2-567,959.9-1078.9,1168.1c-779.4,316.4-1718.1-78.6-2125.9-892c-148.7-299.4-159.3-365.3-169.9-1023.6l-8.5-601h-507.6h-507.6v488.5c0,269.7,10.6,581.9,23.4,694.5c133.8,1210.5,1023.6,2162,2217.2,2372.2C4738.8,4414.3,5242.1,4414.3,5490.6,4371.8z M5339.8,2798.1c390.8-106.2,698.7-452.4,764.5-855.9c10.6-76.5,21.2-361,21.2-630.8V816.7H5000H3874.4v516.1c0,363.2,10.6,556.4,31.9,658.4c78.6,373.8,356.8,681.7,722.1,800.7C4821.6,2855.5,5121.1,2857.6,5339.8,2798.1z M8440.5-1997.3v-2198.1H5000H1559.5v2198.1V200.8H5000h3440.5V-1997.3z" fill="#FFF"/><path d="M4872.6-854.7c-40.4-21.2-95.6-70.1-121.1-110.4l-48.8-72.2v-957.8c0-911.1,2.1-962,42.5-1025.8c59.5-97.7,138-142.3,254.8-142.3c116.8,0,195.4,44.6,254.8,142.3c40.4,63.7,42.5,114.7,42.5,1023.6c0,909-2.1,960-42.5,1023.7C5172-835.6,5006.4-784.6,4872.6-854.7z" fill="#FFF"/></g></g>
</svg>