<?xml version="1.0" encoding="utf-8"?>
<!-- Svg Vector Icons : http://www.onlinewebfonts.com/icon -->
<!DOCTYPE svg PUBLIC "-//W3C//DTD SVG 1.1//EN" "http://www.w3.org/Graphics/SVG/1.1/DTD/svg11.dtd">
<svg version="1.1" xmlns="http://www.w3.org/2000/svg" xmlns:xlink="http://www.w3.org/1999/xlink" x="0px" y="0px" viewBox="0 0 1000 1000" enable-background="new 0 0 1000 1000" xml:space="preserve" width="40" height="30">
<metadata> Svg Vector Icons : http://www.onlinewebfonts.com/icon </metadata>
<g><path d="M168.3,150.5h663.5c43.6,0,83.1,17.8,111.8,46.5c28.7,28.7,46.5,68.2,46.5,111.8v382.5c0,43.5-17.8,83-46.5,111.7v0.1c-28.7,28.7-68.2,46.5-111.8,46.5H168.3c-43.4,0-83-17.8-111.7-46.5l-0.1-0.1C27.8,774.3,10,734.7,10,691.2V308.8c0-43.6,17.8-83.1,46.5-111.8h0.1C85.3,168.3,124.8,150.5,168.3,150.5L168.3,150.5z M82.2,715.1L311.7,500L82.2,285c-2.1,7.6-3.3,15.6-3.3,23.8v382.5C79,699.5,80.1,707.5,82.2,715.1L82.2,715.1z M362,547.1L125,769.3c12.9,7.1,27.6,11.2,43.3,11.2h663.5c15.6,0,30.4-4.1,43.2-11.3L638,547.1l-22.9,21.5c-32.5,30.5-73.9,45.7-115.1,45.7c-41.3,0-82.6-15.2-115.1-45.7L362,547.1L362,547.1z M688.3,500l229.5,215.1c2.1-7.6,3.2-15.6,3.2-23.8V308.8c0-8.2-1.1-16.2-3.2-23.8L688.3,500L688.3,500z M125,230.7l307,287.8c19.1,17.9,43.5,26.8,68,26.8c24.5,0,48.9-9,68-26.8l307-287.8c-12.9-7.2-27.6-11.3-43.3-11.3H168.3C152.6,219.5,137.8,223.6,125,230.7z" fill="#FFF" /></g>
</svg>