<?xml version="1.0" standalone="no"?>
<!DOCTYPE svg PUBLIC "-//W3C//DTD SVG 20010904//EN"
 "http://www.w3.org/TR/2001/REC-SVG-20010904/DTD/svg10.dtd">
<svg version="1.0" xmlns="http://www.w3.org/2000/svg"
 width="1104.000000pt" height="313.000000pt" viewBox="0 0 1104.000000 313.000000"
 preserveAspectRatio="xMidYMid meet">

<g transform="translate(0.000000,313.000000) scale(0.100000,-0.100000)"
fill="#000000" stroke="none">
<path d="M1355 3109 c-652 -88 -1170 -571 -1318 -1227 -30 -134 -32 -491 -3
-622 106 -491 401 -877 835 -1094 424 -213 939 -213 1366 1 442 222 752 642
836 1134 18 107 21 150 16 309 -8 267 -45 416 -162 655 -209 422 -603 726
-1074 826 -112 23 -384 34 -496 18z m458 -264 c521 -117 919 -530 1012 -1050
21 -119 21 -342 0 -460 -49 -274 -181 -521 -379 -713 -154 -148 -304 -241
-489 -300 -122 -40 -163 -49 -287 -62 -296 -32 -620 56 -872 237 -99 71 -249
225 -315 323 -151 225 -225 463 -225 735 -1 279 67 511 217 735 207 310 522
512 890 570 85 13 366 4 448 -15z"/>
<path d="M1388 2445 c-235 -60 -372 -264 -338 -504 19 -132 87 -219 227 -290
158 -79 197 -91 301 -91 71 0 92 3 89 13 -3 6 -18 48 -33 93 l-27 81 -51 18
c-99 35 -193 83 -234 119 -124 112 -124 309 0 421 68 61 130 79 257 73 81 -3
105 -9 154 -33 32 -16 74 -46 94 -68 47 -52 92 -151 106 -232 10 -58 14 -65
34 -65 l23 0 0 215 c0 207 -1 215 -20 215 -14 0 -22 -11 -30 -41 l-11 -40 -32
21 c-48 32 -133 69 -196 86 -83 22 -244 27 -313 9z"/>
<path d="M1892 1599 c8 -37 144 -409 149 -409 12 0 17 113 8 173 -6 34 -22 82
-36 108 -26 49 -127 155 -121 128z"/>
<path d="M1050 1398 c0 -7 -1 -119 -1 -248 l-1 -235 25 -3 c22 -3 26 1 32 40
4 24 9 46 12 50 2 4 25 -9 50 -28 121 -93 280 -136 437 -119 64 7 66 8 66 35
0 25 3 28 52 33 29 4 64 15 78 25 27 21 47 79 36 107 -6 16 -10 14 -30 -13
-30 -42 -65 -68 -123 -95 -39 -18 -66 -22 -148 -21 -126 0 -191 23 -270 96
-90 82 -135 179 -150 321 -7 66 -8 67 -36 67 -17 0 -29 -5 -29 -12z"/>
<path d="M3570 1699 c-62 -17 -101 -43 -130 -88 -37 -55 -45 -96 -30 -152 25
-92 79 -133 230 -173 162 -43 195 -67 183 -129 -10 -54 -99 -95 -175 -82 -49
9 -103 54 -119 102 l-11 36 -65 -6 c-35 -2 -67 -8 -71 -11 -11 -12 18 -97 48
-141 21 -30 48 -52 87 -72 53 -26 67 -28 168 -28 119 0 166 15 227 73 65 61
77 192 25 271 -36 55 -92 84 -226 121 -134 36 -149 43 -162 77 -14 37 11 69
63 84 84 22 158 -5 184 -68 14 -32 18 -35 46 -29 17 3 48 6 69 6 34 0 39 3 39
23 -1 71 -77 156 -162 182 -57 17 -163 19 -218 4z"/>
<path d="M4764 1691 c-50 -23 -74 -68 -74 -140 l0 -51 -40 0 -40 0 0 -54 0
-55 38 -3 37 -3 3 -212 2 -213 70 0 70 0 0 215 0 215 50 0 50 0 0 55 0 55 -50
0 -50 0 0 38 c0 50 14 62 72 62 41 0 48 3 53 23 13 56 10 70 -15 78 -48 14
-134 9 -176 -10z"/>
<path d="M6300 1230 l0 -480 35 0 35 0 0 480 0 480 -35 0 -35 0 0 -480z"/>
<path d="M7036 1692 c-9 -16 -276 -714 -276 -723 0 -5 22 -9 48 -9 l48 0 41
113 40 112 154 0 154 0 44 -112 45 -113 53 0 c29 0 53 2 53 3 0 2 -67 168
-149 368 l-149 364 -50 3 c-28 2 -53 -1 -56 -6z m79 -152 c10 -30 35 -100 56
-154 22 -55 39 -106 39 -113 0 -10 -28 -13 -120 -13 -66 0 -120 4 -120 8 0 4
20 62 44 128 25 66 50 141 57 168 14 55 20 51 44 -24z"/>
<path d="M8940 1570 l0 -130 -45 32 c-37 26 -54 31 -102 32 -105 1 -188 -69
-214 -180 -15 -68 -8 -190 15 -237 39 -79 123 -136 201 -137 45 0 114 30 129
57 9 16 11 14 16 -12 5 -27 9 -30 48 -33 l42 -3 0 370 0 371 -45 0 -45 0 0
-130z m-56 -170 c44 -39 60 -86 60 -180 0 -125 -50 -193 -141 -193 -89 0 -143
76 -143 203 1 131 49 200 141 200 40 0 55 -6 83 -30z"/>
<path d="M4233 1500 c-23 -5 -55 -16 -72 -24 -32 -17 -87 -99 -77 -115 4 -5
30 -13 59 -16 51 -6 55 -5 85 24 57 57 167 35 160 -32 -3 -31 -6 -33 -78 -50
-144 -34 -164 -41 -197 -70 -19 -17 -37 -45 -43 -69 -42 -154 139 -254 289
-160 l50 30 6 -29 c7 -29 7 -29 76 -29 38 0 69 3 69 6 0 3 -6 15 -12 27 -8 14
-14 90 -18 219 -6 219 -10 233 -81 270 -40 21 -157 31 -216 18z m152 -387 c-3
-13 -20 -32 -38 -43 -60 -37 -128 -18 -142 41 -10 41 20 66 105 87 l75 18 3
-40 c2 -21 1 -50 -3 -63z"/>
<path d="M5225 1499 c-16 -4 -42 -23 -57 -41 l-27 -33 -1 38 0 37 -65 0 -65 0
0 -270 0 -270 69 0 69 0 4 173 c3 150 6 176 23 205 26 43 55 50 124 31 12 -4
23 17 45 88 5 16 2 24 -11 31 -30 16 -77 21 -108 11z"/>
<path d="M5555 1501 c-55 -9 -105 -40 -133 -81 -33 -50 -26 -64 38 -74 55 -8
57 -8 88 24 31 30 37 32 84 28 57 -6 81 -27 76 -68 -3 -22 -12 -26 -113 -50
-129 -30 -170 -52 -196 -102 -85 -165 132 -301 289 -182 l33 25 10 -30 c11
-31 12 -31 80 -31 69 0 70 0 57 23 -8 14 -14 88 -18 217 -6 222 -13 246 -80
280 -43 22 -152 33 -215 21z m155 -331 c0 -40 -5 -56 -27 -80 -55 -62 -163
-42 -163 29 0 40 26 58 111 80 41 11 75 20 77 20 1 1 2 -21 2 -49z"/>
<path d="M7642 1492 c-92 -33 -133 -90 -152 -207 -18 -114 9 -215 75 -273 116
-102 296 -71 359 62 27 57 22 73 -24 78 -39 3 -41 2 -50 -32 -32 -120 -201
-129 -252 -14 -14 33 -20 67 -20 123 0 131 41 191 136 199 64 5 96 -12 121
-64 16 -35 34 -41 82 -28 19 5 20 9 10 37 -17 51 -37 76 -81 102 -58 34 -137
41 -204 17z"/>
<path d="M8167 1496 c-32 -7 -70 -21 -85 -32 -24 -18 -80 -110 -71 -118 2 -2
23 -6 47 -9 38 -5 43 -3 48 19 3 13 20 35 36 49 25 21 40 25 91 25 96 0 137
-35 137 -116 0 -17 -19 -22 -157 -44 -97 -16 -122 -24 -152 -48 -46 -37 -61
-66 -61 -122 0 -96 60 -144 180 -145 66 0 82 4 132 33 32 17 59 32 62 32 2 0
6 -13 10 -30 5 -28 8 -30 52 -30 40 0 45 2 38 18 -4 9 -10 107 -14 217 -6 226
-13 251 -78 284 -50 25 -144 33 -215 17z m198 -323 c-8 -69 -33 -106 -85 -133
-114 -58 -242 30 -167 115 18 21 41 29 126 45 57 11 106 22 109 25 18 17 24
-1 17 -52z"/>
<path d="M9333 1500 c-66 -14 -127 -61 -157 -122 -72 -148 -26 -335 97 -401
60 -31 184 -31 244 1 44 23 85 69 102 114 8 23 7 27 -12 32 -51 14 -74 7 -87
-25 -36 -86 -166 -98 -237 -23 -29 31 -56 106 -46 127 2 4 92 7 200 7 l196 0
-6 65 c-7 70 -25 115 -66 158 -53 58 -143 84 -228 67z m134 -90 c33 -20 55
-54 67 -102 l6 -28 -151 0 -151 0 6 32 c20 99 137 151 223 98z"/>
<path d="M9943 1501 c-37 -9 -84 -38 -96 -58 -14 -24 -27 -14 -27 23 0 35 -1
35 -37 32 l-38 -3 0 -265 0 -265 41 -3 42 -3 4 183 c4 204 12 232 71 268 47
29 93 26 128 -9 l29 -29 0 -206 0 -206 45 0 45 0 0 178 c0 154 3 183 20 220
14 32 29 47 57 58 45 19 99 13 127 -16 20 -19 21 -34 24 -231 l3 -210 42 3 42
3 0 215 c0 229 -4 248 -53 293 -55 50 -175 41 -235 -19 l-35 -33 -40 39 c-24
24 -49 40 -63 40 -13 0 -33 2 -44 4 -11 3 -35 1 -52 -3z"/>
<path d="M10564 1463 c8 -21 53 -141 101 -267 85 -225 86 -231 74 -273 -17
-61 -61 -97 -111 -90 -41 6 -43 3 -32 -52 6 -30 8 -31 59 -31 59 0 90 19 125
74 11 19 72 171 134 338 63 166 117 311 121 321 6 15 1 17 -38 17 l-45 0 -60
-162 c-33 -90 -66 -183 -73 -208 -18 -64 -24 -66 -38 -18 -7 24 -40 121 -73
216 l-61 172 -48 0 -48 0 13 -37z"/>
</g>
</svg>
