<svg xmlns="http://www.w3.org/2000/svg" xmlns:xlink="http://www.w3.org/1999/xlink" width="32" height="32" viewBox="0 0 32 32">
  <defs>
    <clipPath id="clip-twitter">
      <rect width="32" height="32"/>
    </clipPath>
  </defs>
  <g id="twitter" clip-path="url(#clip-twitter)">
    <g id="Stroke" fill="none" stroke="#fff" stroke-width="1">
      <circle cx="16" cy="16" r="16" stroke="none"/>
      <circle cx="16" cy="16" r="15.5" fill="none"/>
    </g>
    <path id="Path_10" data-name="Path 10" d="M15.969,23.712a.052.052,0,0,1,.033.095c-.607.415-3.108,1.986-5.224,1.251-2.428-.843,7.418,5.5,14.094-2.09,0,0,1.787-1.821,2.192-6.913a3.765,3.765,0,0,0,1.678-2.79.1.1,0,0,0-.158-.076,2.029,2.029,0,0,1-2.43.4,4.653,4.653,0,0,0-3.507-1.151,3.845,3.845,0,0,0-2.926,4.523s-3.965.354-7.25-3.776a.128.128,0,0,0-.221.027,4.314,4.314,0,0,0,.787,4.592,1.75,1.75,0,0,1-1.158.046.069.069,0,0,0-.106.073,4.126,4.126,0,0,0,2.545,3.017A2.645,2.645,0,0,1,13,21.383c-.066-.012-.122.045-.088.1C13.252,22.067,14.339,23.681,15.969,23.712Z" transform="translate(-3.901 -3.9)" fill="none" stroke="#fff" stroke-miterlimit="10" stroke-width="1"/>
  </g>
</svg>
